<svg width="297" height="297" viewBox="0 0 297 297" fill="none" xmlns="http://www.w3.org/2000/svg">
<rect width="297" height="297" rx="45" fill="#39CE8A"/>
<path d="M246.354 148.21C246.354 202.086 202.55 245.773 148.5 245.773C94.4502 245.773 50.6465 202.086 50.6465 148.21C50.6465 94.334 94.4502 50.6465 148.5 50.6465C202.55 50.6465 246.354 94.334 246.354 148.21Z" stroke="white" stroke-width="5"/>
<circle cx="148.79" cy="48.4365" r="14.3721" fill="#39CE8A" stroke="#FFF129" stroke-width="2"/>
<circle cx="179.062" cy="52.8515" r="14.3737" transform="rotate(17.7747 179.062 52.8515)" fill="#39CE8A" stroke="#FFF129" stroke-width="2"/>
<circle cx="206.236" cy="67.1967" r="14.3737" transform="rotate(35.3942 206.236 67.1967)" fill="#39CE8A" stroke="#FFF129" stroke-width="2"/>
<circle cx="228.187" cy="88.6187" r="14.3737" transform="rotate(53.0565 228.187 88.6187)" fill="#39CE8A" stroke="#FFF129" stroke-width="2"/>
<circle cx="242.649" cy="115.683" r="14.3737" transform="rotate(70.7016 242.649 115.683)" fill="#39CE8A" stroke="#FFF129" stroke-width="2"/>
<circle cx="148.21" cy="248.563" r="14.3721" fill="#39CE8A" stroke="#FFF129" stroke-width="2"/>
<circle cx="117.918" cy="244.185" r="14.3737" transform="rotate(17.7747 117.918 244.185)" fill="#39CE8A" stroke="#FFF129" stroke-width="2"/>
<circle cx="90.3448" cy="230.285" r="14.3737" transform="rotate(35.3942 90.3448 230.285)" fill="#39CE8A" stroke="#FFF129" stroke-width="2"/>
<circle cx="68.2771" cy="208.857" r="14.3737" transform="rotate(53.0565 68.2771 208.857)" fill="#39CE8A" stroke="#FFF129" stroke-width="2"/>
<circle cx="53.8151" cy="181.793" r="14.3737" transform="rotate(70.7016 53.8151 181.793)" fill="#39CE8A" stroke="#FFF129" stroke-width="2"/>
<path d="M89.0853 158V154.056H93.4713V158H89.0853ZM82.4893 166.432C82.1946 166.432 81.8773 166.421 81.5373 166.398C81.1973 166.375 80.8459 166.341 80.4833 166.296L80.6533 162.42C81.0159 162.443 81.3559 162.465 81.6733 162.488C82.0133 162.511 82.2626 162.522 82.4213 162.522C83.3053 162.522 84.0079 162.171 84.5293 161.468C85.0733 160.765 85.3453 159.779 85.3453 158.51V140.932H89.9013V158.51C89.9013 160.051 89.5839 161.423 88.9493 162.624C88.3373 163.825 87.4759 164.755 86.3653 165.412C85.2546 166.092 83.9626 166.432 82.4893 166.432ZM93.4713 158V154.056C93.7433 154.056 93.9246 154.237 94.0153 154.6C94.1059 154.94 94.1513 155.416 94.1513 156.028C94.1513 156.617 94.1059 157.093 94.0153 157.456C93.9246 157.819 93.7433 158 93.4713 158ZM93.4824 158V154.056H110.55L109.054 155.28V150.656C109.054 149.477 108.93 148.537 108.68 147.834C108.431 147.131 108.046 146.621 107.524 146.304C107.026 145.987 106.391 145.828 105.62 145.828H98.1744L95.3524 141.748L97.0864 138.484C97.2904 138.099 97.5171 137.679 97.7664 137.226C98.0158 136.773 98.3444 136.229 98.7524 135.594C99.1604 134.959 99.6818 134.166 100.316 133.214L104.124 135.356C103.535 136.24 103.059 136.977 102.696 137.566C102.334 138.133 102.028 138.631 101.778 139.062C101.529 139.493 101.302 139.923 101.098 140.354L99.7384 142.904L99.0584 141.884H105.62C107.071 141.884 108.306 142.122 109.326 142.598C110.346 143.074 111.162 143.731 111.774 144.57C112.409 145.409 112.874 146.349 113.168 147.392C113.463 148.435 113.61 149.523 113.61 150.656V158H93.4824ZM93.4824 158C93.2104 158 93.0291 157.819 92.9384 157.456C92.8478 157.093 92.8024 156.617 92.8024 156.028C92.8024 155.416 92.8478 154.94 92.9384 154.6C93.0291 154.237 93.2104 154.056 93.4824 154.056V158ZM131.125 158V154.056H134.695V158H131.125ZM117.321 158V154.056H129.663L126.569 156.742V151.03C126.569 149.421 126.399 148.174 126.059 147.29C125.742 146.406 125.198 145.783 124.427 145.42C123.679 145.057 122.648 144.876 121.333 144.876H118.579V140.932H121.333C123.418 140.932 125.186 141.272 126.637 141.952C128.11 142.632 129.221 143.72 129.969 145.216C130.74 146.689 131.125 148.627 131.125 151.03V158H117.321ZM134.695 158V154.056C134.967 154.056 135.148 154.237 135.239 154.6C135.33 154.94 135.375 155.416 135.375 156.028C135.375 156.617 135.33 157.093 135.239 157.456C135.148 157.819 134.967 158 134.695 158ZM119.089 137.804V133.928H123.645V137.804H119.089ZM138.53 158V133.962H143.086V158H138.53ZM134.688 158V154.056H138.53V158H134.688ZM134.688 158C134.415 158 134.234 157.819 134.143 157.456C134.053 157.093 134.007 156.617 134.007 156.028C134.007 155.416 134.053 154.94 134.143 154.6C134.234 154.237 134.415 154.056 134.688 154.056V158ZM148.539 158V133.962H153.061V158H148.539ZM189.959 158V154.056H193.529V158H189.959ZM176.087 158C172.438 158 169.661 157.297 167.757 155.892C165.853 154.464 164.901 152.356 164.901 149.568C164.901 149.024 164.935 148.457 165.003 147.868C165.071 147.256 165.15 146.678 165.241 146.134C165.354 145.567 165.456 145.069 165.547 144.638C165.638 144.207 165.706 143.89 165.751 143.686L170.171 144.536C170.103 144.899 170.012 145.363 169.899 145.93C169.786 146.497 169.684 147.097 169.593 147.732C169.502 148.344 169.457 148.933 169.457 149.5C169.457 150.679 169.706 151.608 170.205 152.288C170.704 152.945 171.463 153.41 172.483 153.682C173.503 153.931 174.784 154.056 176.325 154.056H188.055L185.403 156.266V133.962H189.959V158H176.087ZM193.529 158V154.056C193.801 154.056 193.982 154.237 194.073 154.6C194.164 154.94 194.209 155.416 194.209 156.028C194.209 156.617 194.164 157.093 194.073 157.456C193.982 157.819 193.801 158 193.529 158ZM175.373 145.182C174.942 144.661 174.614 144.162 174.387 143.686C174.16 143.21 174.047 142.7 174.047 142.156C174.047 141.385 174.251 140.694 174.659 140.082C175.067 139.447 175.6 138.96 176.257 138.62C176.914 138.257 177.64 138.076 178.433 138.076C178.864 138.076 179.306 138.133 179.759 138.246C180.212 138.359 180.598 138.529 180.915 138.756L179.759 140.83C179.555 140.717 179.351 140.649 179.147 140.626C178.966 140.581 178.773 140.558 178.569 140.558C178.025 140.558 177.606 140.705 177.311 141C177.016 141.272 176.869 141.646 176.869 142.122C176.869 142.394 176.926 142.655 177.039 142.904C177.152 143.153 177.322 143.425 177.549 143.72L175.373 145.182ZM173.299 145.454V142.972H181.527V145.454H173.299ZM201.649 158V154.056H205.219V158H201.649ZM193.523 158V154.056H199.745L197.093 156.266V140.932H201.649V158H193.523ZM193.523 158C193.251 158 193.07 157.819 192.979 157.456C192.889 157.093 192.843 156.617 192.843 156.028C192.843 155.416 192.889 154.94 192.979 154.6C193.07 154.237 193.251 154.056 193.523 154.056V158ZM205.219 158V154.056C205.491 154.056 205.673 154.237 205.763 154.6C205.854 154.94 205.899 155.416 205.899 156.028C205.899 156.617 205.854 157.093 205.763 157.456C205.673 157.819 205.491 158 205.219 158ZM197.093 137.804V133.928H201.649V137.804H197.093ZM205.211 158V154.056H211.433L208.781 156.266V140.932H213.337V158H205.211ZM205.211 158C204.939 158 204.758 157.819 204.667 157.456C204.576 157.093 204.531 156.617 204.531 156.028C204.531 155.416 204.576 154.94 204.667 154.6C204.758 154.237 204.939 154.056 205.211 154.056V158ZM208.781 165.242V161.366H213.337V165.242H208.781Z" fill="white"/>
</svg>
